<svg xmlns="http://www.w3.org/2000/svg" width="512" height="512" viewBox="0 0 512 512" version="1.1"><path d="M 407.217 1.391 C 404.311 2.127, 398.461 4.417, 394.217 6.481 C 386.612 10.179, 383.952 12.779, 210.183 186.367 C 113.209 283.240, 33.199 363.758, 32.383 365.296 C 30.253 369.314, 0 492.195, 0 496.829 C 0 504.608, 7.789 512.025, 15.898 511.968 C 18.429 511.950, 49.030 504.795, 83.900 496.067 L 147.299 480.199 323.190 304.349 C 419.930 207.632, 500.573 126.250, 502.397 123.500 C 504.221 120.750, 507.008 115.350, 508.591 111.500 C 511.271 104.984, 511.471 103.567, 511.485 91 C 511.511 67.286, 507.821 60.492, 479.654 32.393 C 459.281 12.071, 453.636 7.664, 442.500 3.389 C 436.673 1.153, 433.573 0.648, 424 0.378 C 416.646 0.170, 410.595 0.535, 407.217 1.391 M 412 34.655 C 408.378 35.958, 403.014 40.730, 384.500 59.118 L 361.500 81.961 395.747 116.225 L 429.993 150.489 451.563 128.995 C 463.426 117.173, 474.280 105.570, 475.684 103.210 C 477.439 100.262, 478.399 96.901, 478.755 92.462 C 479.658 81.217, 478.377 79.175, 456.616 57.171 C 446.102 46.540, 435.700 36.910, 433.500 35.771 C 428.182 33.018, 418.017 32.490, 412 34.655 M 204 239.500 L 70.503 373 104.752 407.249 L 139.001 441.498 272.748 307.751 L 406.494 174.005 372.503 140.003 C 353.807 121.301, 338.283 106, 338.004 106 C 337.725 106, 277.424 166.075, 204 239.500 M 55.131 409.589 C 54.563 411.740, 50.751 426.902, 46.660 443.282 C 40.595 467.565, 39.524 472.974, 40.861 472.571 C 41.762 472.300, 56.450 468.623, 73.500 464.400 C 90.550 460.176, 104.828 456.433, 105.229 456.082 C 105.630 455.730, 94.754 444.246, 81.061 430.561 L 56.164 405.679 55.131 409.589" stroke="none" fill="#fffcfc" fill-rule="evenodd"/><path d="" stroke="none" fill="#fcfcfc" fill-rule="evenodd"/></svg>