<svg width="39" height="34" viewBox="0 0 39 34" fill="none" xmlns="http://www.w3.org/2000/svg">
<line x1="19.2903" y1="32.2982" x2="29.7741" y2="32.2982" stroke="#E6E6E6" stroke-width="2.5"/>
<line x1="28.6789" y1="32.9458" x2="37.9047" y2="16.1716" stroke="#E6E6E6" stroke-width="2.5"/>
<line y1="-1.25" x2="10.4839" y2="-1.25" transform="matrix(1 0 0 -1 19.2903 0)" stroke="#E6E6E6" stroke-width="2.5"/>
<line y1="-1.25" x2="19.1439" y2="-1.25" transform="matrix(0.481919 0.876216 0.876216 -0.481919 29.7742 0)" stroke="#E6E6E6" stroke-width="2.5"/>
<line x1="19.2903" y1="32.2982" x2="29.7741" y2="32.2982" stroke="#E6E6E6" stroke-width="2.5"/>
<line x1="28.6789" y1="32.9458" x2="37.9047" y2="16.1716" stroke="#E6E6E6" stroke-width="2.5"/>
<line y1="-1.25" x2="10.4839" y2="-1.25" transform="matrix(1 0 0 -1 19.2903 0)" stroke="#E6E6E6" stroke-width="2.5"/>
<line y1="-1.25" x2="19.1439" y2="-1.25" transform="matrix(0.481919 0.876216 0.876216 -0.481919 29.7742 0)" stroke="#E6E6E6" stroke-width="2.5"/>
<line x1="9.64508" y1="32.2982" x2="20.1289" y2="32.2982" stroke="#999999" stroke-width="2.5"/>
<line x1="19.0336" y1="32.9458" x2="28.2594" y2="16.1716" stroke="#999999" stroke-width="2.5"/>
<line y1="-1.25" x2="10.4839" y2="-1.25" transform="matrix(1 0 0 -1 9.64508 0)" stroke="#999999" stroke-width="2.5"/>
<line y1="-1.25" x2="19.1439" y2="-1.25" transform="matrix(0.481919 0.876216 0.876216 -0.481919 20.129 0)" stroke="#999999" stroke-width="2.5"/>
<line x1="9.64508" y1="32.2982" x2="20.1289" y2="32.2982" stroke="#999999" stroke-width="2.5"/>
<line x1="19.0336" y1="32.9458" x2="28.2594" y2="16.1716" stroke="#999999" stroke-width="2.5"/>
<line y1="-1.25" x2="10.4839" y2="-1.25" transform="matrix(1 0 0 -1 9.64508 0)" stroke="#999999" stroke-width="2.5"/>
<line y1="-1.25" x2="19.1439" y2="-1.25" transform="matrix(0.481919 0.876216 0.876216 -0.481919 20.129 0)" stroke="#999999" stroke-width="2.5"/>
<line x1="1.25" y1="16.7742" x2="1.25" y2="33.5484" stroke="#F64141" stroke-width="2.5"/>
<line y1="32.2982" x2="10.4839" y2="32.2982" stroke="#F64141" stroke-width="2.5"/>
<line x1="9.38856" y1="32.9458" x2="18.6144" y2="16.1716" stroke="#F64141" stroke-width="2.5"/>
<line y1="-1.25" x2="16.7742" y2="-1.25" transform="matrix(-8.74227e-08 -1 -1 8.74228e-08 0 16.7742)" stroke="#F64141" stroke-width="2.5"/>
<line y1="-1.25" x2="10.4839" y2="-1.25" transform="matrix(1 0 0 -1 0 0.00012207)" stroke="#F64141" stroke-width="2.5"/>
<line y1="-1.25" x2="19.1439" y2="-1.25" transform="matrix(0.481919 0.876216 0.876216 -0.481919 10.4838 0)" stroke="#F64141" stroke-width="2.5"/>
<line y1="32.2982" x2="10.4839" y2="32.2982" stroke="#F64141" stroke-width="2.5"/>
<line x1="9.38856" y1="32.9458" x2="18.6144" y2="16.1716" stroke="#F64141" stroke-width="2.5"/>
<line y1="-1.25" x2="10.4839" y2="-1.25" transform="matrix(1 0 0 -1 0 0.00012207)" stroke="#F64141" stroke-width="2.5"/>
<line y1="-1.25" x2="19.1439" y2="-1.25" transform="matrix(0.481919 0.876216 0.876216 -0.481919 10.4838 0)" stroke="#F64141" stroke-width="2.5"/>
</svg>
