<?xml version="1.0" encoding="UTF-8"?>
<svg xmlns="http://www.w3.org/2000/svg" width="512" height="512" viewBox="0 0 512 512" version="1.1" style="background: transparent;"><path d="M 48.500 65.404 C 35.619 69.495, 25.838 77.948, 20.113 89.935 L 16.500 97.500 16.500 264 L 16.500 430.500 20.113 438.065 C 24.878 448.043, 31.957 455.122, 41.935 459.887 L 49.500 463.500 256 463.500 L 462.500 463.500 470.065 459.887 C 480.043 455.122, 487.122 448.043, 491.887 438.065 L 495.500 430.500 495.500 312 L 495.500 193.500 491.887 185.935 C 484.826 171.149, 470.741 161.196, 455.492 160.218 L 448.175 159.748 447.837 144.624 C 447.503 129.615, 447.473 129.442, 443.887 121.935 C 439.122 111.957, 432.043 104.878, 422.065 100.113 L 414.500 96.500 324.496 96.230 L 234.493 95.959 231.596 90.426 C 224.960 77.752, 215.776 69.556, 204.207 65.982 C 198.049 64.080, 194.851 64.003, 125.145 64.067 C 69.327 64.118, 51.573 64.428, 48.500 65.404 M 57.333 97.087 C 53.015 98.351, 49.247 103.124, 48.517 108.255 C 48.184 110.590, 48.044 182.270, 48.206 267.544 C 48.483 413.701, 48.601 422.743, 50.264 425.280 C 51.234 426.761, 53.239 428.766, 54.720 429.736 C 57.269 431.406, 67.955 431.500, 256 431.500 C 444.045 431.500, 454.731 431.406, 457.280 429.736 C 458.761 428.766, 460.766 426.761, 461.736 425.280 C 463.394 422.749, 463.500 415.970, 463.500 312 C 463.500 208.030, 463.394 201.251, 461.736 198.720 C 460.766 197.239, 458.761 195.234, 457.281 194.264 C 454.771 192.619, 448.126 192.466, 358.545 192 C 270.847 191.543, 262.128 191.351, 258.221 189.784 C 251.594 187.127, 243.322 181.228, 239.222 176.237 C 237.175 173.744, 227.400 155.704, 217.500 136.147 C 204.528 110.520, 198.712 100.017, 196.677 98.544 C 193.907 96.538, 192.610 96.497, 127.177 96.330 C 88.584 96.231, 59.166 96.550, 57.333 97.087 M 251.042 128.726 C 251.065 129.152, 254.102 135.328, 257.792 142.452 C 261.929 150.439, 265.582 156.189, 267.323 157.452 C 270.098 159.466, 271.375 159.505, 343.181 159.769 L 416.217 160.038 415.858 148.724 C 415.469 136.474, 414.468 133.663, 409.281 130.264 C 406.777 128.623, 401.163 128.481, 328.795 128.226 C 286.008 128.076, 251.019 128.301, 251.042 128.726" stroke="none" fill="#fffcfc" fill-rule="evenodd"/><path d="" stroke="none" fill="#fcfcfc" fill-rule="evenodd"/></svg>