<svg version="1.1" xmlns="http://www.w3.org/2000/svg" width="512px" height="512px" transform="rotate(0) scale(1, 1)">
<path d="M0 0 C2.17737289 -0.00543643 4.35474209 -0.01256752 6.53210449 -0.02124023 C12.38340988 -0.03929574 18.2344295 -0.0324803 24.08573914 -0.01972389 C30.24759619 -0.00950318 36.40943091 -0.01901449 42.57128906 -0.02526855 C52.91345553 -0.03251878 63.25550725 -0.02302648 73.59765625 -0.00390625 C85.50610172 0.01785729 97.41427311 0.01080406 109.32271194 -0.01121187 C119.59937488 -0.029441 129.87595595 -0.03188764 140.15262985 -0.0214572 C146.26752963 -0.01526339 152.38230116 -0.01427211 158.49719238 -0.02760315 C164.24964546 -0.03927105 170.00174973 -0.03093874 175.75416565 -0.00802612 C177.84855067 -0.0027969 179.94296573 -0.00415162 182.03733826 -0.01307678 C198.82781851 -0.0779596 215.4630254 1.50664087 231.234375 7.70507812 C232.00475098 7.99987061 232.77512695 8.29466309 233.56884766 8.59838867 C264.77166 20.97501272 290.04710772 45.79915083 303.60546875 76.42285156 C305.13823272 80.07593902 306.5091125 83.77158131 307.796875 87.51757812 C308.02737549 88.17999512 308.25787598 88.84241211 308.49536133 89.52490234 C313.32478223 104.45478306 313.92560586 119.0412141 313.88842773 134.57910156 C313.89414257 136.75588326 313.9011111 138.93266196 313.90922546 141.10943604 C313.927051 146.97745671 313.9260083 152.84532698 313.92028308 158.71336651 C313.91717514 163.63324486 313.92330158 168.55309498 313.92932183 173.47296929 C313.94333129 185.09170431 313.94183625 196.71036574 313.93041992 208.32910156 C313.91894832 220.26699278 313.93300666 232.20465908 313.9598164 244.14252067 C313.98205751 254.43608028 313.98859172 264.72956973 313.98273998 275.02315164 C313.97938855 281.15153408 313.98166358 287.2797725 313.99899101 293.40813446 C314.01459226 299.17693552 314.01036004 304.94540661 313.99168587 310.71419525 C313.98803586 312.81503237 313.99100172 314.91589467 314.00157166 317.01670837 C314.07961728 333.82980574 312.50391772 350.47433272 306.296875 366.26757812 C306.00208252 367.0379541 305.70729004 367.80833008 305.40356445 368.60205078 C293.02694041 399.80486312 268.20280229 425.08031084 237.57910156 438.63867188 C233.9260141 440.17143584 230.23037182 441.54231562 226.484375 442.83007812 C225.82195801 443.06057861 225.15954102 443.2910791 224.47705078 443.52856445 C209.54717007 448.35798536 194.96073903 448.95880899 179.42285156 448.92163086 C177.24606987 448.9273457 175.06929116 448.93431423 172.89251709 448.94242859 C167.02449642 448.96025413 161.15662615 448.95921142 155.28858662 448.9534862 C150.36870827 448.95037826 145.44885814 448.95650471 140.52898383 448.96252495 C128.91024882 448.97653442 117.29158738 448.97503937 105.67285156 448.96362305 C93.73496035 448.95215144 81.79729405 448.96620978 69.85943246 448.99301952 C59.56587285 449.01526064 49.2723834 449.02179484 38.97880149 449.01594311 C32.85041905 449.01259168 26.72218062 449.0148667 20.59381866 449.03219414 C14.82501761 449.04779539 9.05654652 449.04356317 3.28775787 449.02488899 C1.18692075 449.02123899 -0.91394155 449.02420484 -3.01475525 449.03477478 C-19.82785261 449.11282041 -36.4723796 447.53712084 -52.265625 441.33007812 C-53.03600098 441.03528564 -53.80637695 440.74049316 -54.60009766 440.43676758 C-85.80291 428.06014353 -111.07835772 403.23600542 -124.63671875 372.61230469 C-126.16948272 368.95921723 -127.5403625 365.26357494 -128.828125 361.51757812 C-129.17387573 360.52395264 -129.17387573 360.52395264 -129.52661133 359.51025391 C-134.35603223 344.58037319 -134.95685586 329.99394215 -134.91967773 314.45605469 C-134.92539257 312.27927299 -134.9323611 310.10249429 -134.94047546 307.92572021 C-134.958301 302.05769954 -134.9572583 296.18982927 -134.95153308 290.32178974 C-134.94842514 285.40191139 -134.95455158 280.48206127 -134.96057183 275.56218696 C-134.97458129 263.94345194 -134.97308625 252.32479051 -134.96166992 240.70605469 C-134.95019832 228.76816347 -134.96425666 216.83049717 -134.9910664 204.89263558 C-135.01330751 194.59907597 -135.01984172 184.30558652 -135.01398998 174.01200461 C-135.01063855 167.88362217 -135.01291358 161.75538375 -135.03024101 155.62702179 C-135.04584226 149.85822073 -135.04161004 144.08974964 -135.02293587 138.320961 C-135.01928586 136.22012388 -135.02225172 134.11926158 -135.03282166 132.01844788 C-135.11086728 115.20535051 -133.53516772 98.56082353 -127.328125 82.76757812 C-127.03333252 81.99720215 -126.73854004 81.22682617 -126.43481445 80.43310547 C-121.13801827 67.07930747 -113.60260749 55.56847107 -104.515625 44.51757812 C-103.96003906 43.82019531 -103.40445313 43.1228125 -102.83203125 42.40429688 C-99.16118783 37.91771047 -94.99415397 34.18451206 -90.515625 30.51757812 C-89.57847656 29.74285156 -88.64132813 28.968125 -87.67578125 28.16992188 C-76.86736163 19.42960087 -65.25692229 12.67633485 -52.265625 7.70507812 C-51.58935059 7.43928955 -50.91307617 7.17350098 -50.21630859 6.8996582 C-33.895377 1.0147247 -17.17743161 -0.07320159 0 0 Z M-18.1902771 17.40385437 C-19.3925384 17.51936574 -19.3925384 17.51936574 -20.61908782 17.63721067 C-45.87917981 20.3420634 -67.24200029 32.3151659 -85.515625 49.51757812 C-86.11890625 50.05640625 -86.7221875 50.59523437 -87.34375 51.15039062 C-105.33785195 67.88322375 -115.4457388 93.26876592 -117.62835693 117.3581543 C-117.71232971 118.26977168 -117.79630249 119.18138906 -117.88281989 120.12063122 C-118.68689539 129.48338078 -118.79803972 138.80215874 -118.77441406 148.19335938 C-118.77713481 150.05398697 -118.78070173 151.91461349 -118.78503418 153.77523804 C-118.79403182 158.75874427 -118.79066698 163.74216626 -118.78427601 168.72567368 C-118.77914965 173.9848424 -118.78392563 179.24400476 -118.78704834 184.50317383 C-118.7906689 193.32862621 -118.78593939 202.15404493 -118.77636719 210.97949219 C-118.76548637 221.12752513 -118.7690133 231.27547765 -118.78002 241.42350864 C-118.78914768 250.19616914 -118.79035156 258.96880567 -118.78514266 267.74146938 C-118.78205288 272.95482637 -118.78152991 278.16814579 -118.78821564 283.38150024 C-118.79406897 288.28683795 -118.78984914 293.19207376 -118.77842712 298.09740067 C-118.77582262 299.87853452 -118.77647162 301.65967722 -118.78095245 303.44080734 C-118.80252206 312.89979937 -118.49633124 322.25418064 -117.62835693 331.67700195 C-117.55140917 332.52626849 -117.47446141 333.37553503 -117.39518189 334.25053692 C-114.82988357 359.66228714 -102.80787453 381.14852184 -85.515625 399.51757812 C-84.70738281 400.4225 -84.70738281 400.4225 -83.8828125 401.34570312 C-67.29384848 419.18509156 -42.07370148 429.33786592 -18.18432617 431.63031006 C-17.31940898 431.71428283 -16.45449179 431.79825561 -15.56336498 431.88477302 C-6.29099267 432.72049081 2.94288479 432.79944355 12.24609375 432.77636719 C14.12790053 432.77908714 16.00970625 432.78265363 17.89151001 432.7869873 C22.93698943 432.79599435 27.98238576 432.79261606 33.02786636 432.78622913 C38.34890185 432.78110781 43.66993098 432.7858774 48.9909668 432.78900146 C57.92074845 432.79262345 66.85049685 432.78788871 75.78027344 432.77832031 C86.05270523 432.76743921 96.32505758 432.77096605 106.59748745 432.78197312 C115.4728713 432.79109668 124.34823147 432.79230666 133.22361851 432.78709579 C138.50011557 432.78400378 143.7765755 432.7834894 149.05307007 432.79016876 C154.01748686 432.79601597 158.98180286 432.79181297 163.94620895 432.78038025 C165.75033782 432.77777257 167.55447542 432.77843049 169.35860062 432.78290558 C206.87502207 432.86726705 238.09314896 424.8429473 265.984375 398.45507812 C283.55711951 380.43110765 294.34761712 356.67928733 296.60101318 331.66918945 C296.68470398 330.75813603 296.76839477 329.84708261 296.85462165 328.90842152 C297.65615898 319.54793064 297.76678359 310.23055925 297.74316406 300.84179688 C297.74588481 298.98116928 297.74945173 297.12054276 297.75378418 295.25991821 C297.76278182 290.27641198 297.75941698 285.29298999 297.75302601 280.30948257 C297.74789965 275.05031385 297.75267563 269.79115149 297.75579834 264.53198242 C297.7594189 255.70653004 297.75468939 246.88111132 297.74511719 238.05566406 C297.73423637 227.90763112 297.7377633 217.7596786 297.74877 207.61164761 C297.75789768 198.83898711 297.75910156 190.06635058 297.75389266 181.29368687 C297.75080288 176.08032988 297.75027991 170.86701046 297.75696564 165.65365601 C297.76281897 160.7483183 297.75859914 155.84308249 297.74717712 150.93775558 C297.74457262 149.15662173 297.74522162 147.37547903 297.74970245 145.59434891 C297.77127206 136.13535688 297.46508124 126.78097561 296.59710693 117.3581543 C296.52015917 116.50888776 296.44321141 115.65962122 296.36393189 114.78461933 C293.79863357 89.37286911 281.77662453 67.88663441 264.484375 49.51757812 C263.67613281 48.61265625 263.67613281 48.61265625 262.8515625 47.68945312 C243.48365575 26.86165391 214.11108016 17.73581498 186.484375 16.51757812 C180.12572218 16.3449088 173.76427158 16.37026982 167.40380859 16.37231445 C165.52288751 16.36931551 163.64196705 16.36591131 161.76104736 16.36213684 C156.69044398 16.35336695 151.6198575 16.35096169 146.54924726 16.35032105 C143.37001467 16.3496065 140.19078627 16.34746455 137.01155472 16.34482384 C125.8880715 16.33559324 114.7646002 16.33148603 103.64111328 16.33227539 C93.32450502 16.33287539 83.00794917 16.32233281 72.69135416 16.30653173 C63.79061814 16.2933922 54.88989912 16.28809418 45.9891535 16.2887308 C40.69244069 16.28898393 35.39577452 16.28623623 30.0990715 16.27555275 C25.1101192 16.26576319 20.1212571 16.26586571 15.13230133 16.27306938 C13.31849915 16.27410192 11.50469103 16.27183331 9.6908989 16.26570892 C0.34758628 16.2362455 -8.8861422 16.50007931 -18.1902771 17.40385437 Z " fill="#ffffff" transform="translate(166.515625,31.482421875)"/>
<path d="M0 0 C8.80288754 6.34043826 15.4186507 14.72648904 17.58203125 25.4921875 C18.92007691 37.90936834 17.85729499 48.88109459 10.39453125 59.2421875 C3.58210875 67.3274193 -4.72289951 73.55522767 -15.48876953 74.71533203 C-28.40007937 75.61089799 -39.16843729 74.04490094 -49.3515625 65.46484375 C-57.86959925 57.33325857 -62.42046403 48.68416257 -62.88867188 36.85693359 C-63.04371176 24.34263074 -60.22647828 14.71931927 -51.41796875 5.4921875 C-37.63784493 -7.66275112 -16.31305228 -10.17259803 0 0 Z M-41.36328125 19.625 C-46.1783681 26.4109131 -46.77258792 33.40158534 -45.41796875 41.4921875 C-43.03112813 48.37516976 -38.7506853 53.09693028 -32.32421875 56.484375 C-25.73846464 58.76814457 -19.03189459 58.8168137 -12.4765625 56.4140625 C-5.65846091 52.71542021 -1.84893851 47.78509677 0.58203125 40.4921875 C1.45420196 32.62057085 1.16040382 26.26496049 -3.47265625 19.66015625 C-7.88691297 14.74065328 -12.26181961 12.02062531 -18.82421875 10.921875 C-28.29581003 10.44829544 -34.93461818 12.57670675 -41.36328125 19.625 Z " fill="#ffffff" transform="translate(350.41796875,197.5078125)"/>
<path d="M0 0 C8.80288754 6.34043826 15.4186507 14.72648904 17.58203125 25.4921875 C18.92007691 37.90936834 17.85729499 48.88109459 10.39453125 59.2421875 C3.58210875 67.3274193 -4.72289951 73.55522767 -15.48876953 74.71533203 C-28.40007937 75.61089799 -39.16843729 74.04490094 -49.3515625 65.46484375 C-57.86959925 57.33325857 -62.42046403 48.68416257 -62.88867188 36.85693359 C-63.04371176 24.34263074 -60.22647828 14.71931927 -51.41796875 5.4921875 C-37.63784493 -7.66275112 -16.31305228 -10.17259803 0 0 Z M-41.36328125 19.625 C-46.1783681 26.4109131 -46.77258792 33.40158534 -45.41796875 41.4921875 C-43.03112813 48.37516976 -38.7506853 53.09693028 -32.32421875 56.484375 C-25.73846464 58.76814457 -19.03189459 58.8168137 -12.4765625 56.4140625 C-5.65846091 52.71542021 -1.84893851 47.78509677 0.58203125 40.4921875 C1.45420196 32.62057085 1.16040382 26.26496049 -3.47265625 19.66015625 C-7.88691297 14.74065328 -12.26181961 12.02062531 -18.82421875 10.921875 C-28.29581003 10.44829544 -34.93461818 12.57670675 -41.36328125 19.625 Z " fill="#ffffff" transform="translate(206.41796875,197.5078125)"/>
<path d="M0 0 C12.93702168 8.74123087 12.93702168 8.74123087 15.2265625 13.3203125 C15.79528288 20.3724452 15.79528288 20.3724452 13.7265625 23.8203125 C10.27742506 25.88979497 7.11051674 25.96477193 3.2265625 25.3203125 C0.76475946 23.79730802 -1.08978758 22.45599895 -3.2109375 20.5703125 C-4.34023592 19.64513153 -5.47435179 18.72579865 -6.61328125 17.8125 C-7.15581543 17.37647461 -7.69834961 16.94044922 -8.25732422 16.49121094 C-14.53017387 11.64667198 -20.74141954 10.59169801 -28.57421875 10.8828125 C-36.41297537 11.95477922 -41.56195882 16.04994508 -47.3984375 21.1328125 C-53.07299662 25.94856281 -53.07299662 25.94856281 -57.2109375 26.1328125 C-60.7734375 25.3203125 -60.7734375 25.3203125 -63.2734375 23.8203125 C-65.39486707 20.28459655 -65.72138974 17.260239 -64.7734375 13.3203125 C-59.53557335 3.74484211 -47.49799202 -1.92035492 -37.7734375 -5.6796875 C-24.85270454 -9.3444412 -11.29060695 -6.83797323 0 0 Z " fill="#ffffff" transform="translate(280.7734375,334.6796875)"/>
<path d="M0 0 C2.5 1.5 2.5 1.5 4 4 C5.06750156 9.53159897 4.01976563 12.52210771 1.125 17.3125 C-9.44030093 32.63962671 -22.69924364 43.55217164 -41 48 C-44.82421875 48.3359375 -44.82421875 48.3359375 -48.6875 48.375 C-49.97011719 48.40335938 -51.25273437 48.43171875 -52.57421875 48.4609375 C-56 48 -56 48 -58.42578125 46.2265625 C-60.08511295 43.87961692 -60.54424493 42.83167551 -60.5 40 C-60.5103125 39.34 -60.520625 38.68 -60.53125 38 C-59.73000487 34.98354775 -58.48808701 33.87202713 -56 32 C-53.39924164 31.35985749 -51.01021858 30.90873759 -48.375 30.5625 C-34.78260263 28.34764688 -25.0383647 21.84711401 -16.625 10.8125 C-14.94059539 8.43339744 -13.34256697 6.00366105 -11.75 3.5625 C-8.75991709 -0.81583569 -4.98805951 -0.68018993 0 0 Z " fill="#ffffff" transform="translate(212,120)"/>
<path d="M0 0 C3.48255526 2.57045746 5.49854001 5.72679256 7.8125 9.3125 C14.50434744 19.53709939 23.95398942 27.04995659 36 30 C39.06338526 30.43940303 42.12234203 30.87468213 45.1953125 31.2421875 C48.5648593 32.15262215 49.89443425 33.24200543 52 36 C52.53125 38 52.53125 38 52.5 40 C52.51546875 40.99 52.51546875 40.99 52.53125 42 C51.73254994 45.00687082 50.48921379 46.15733525 48 48 C33.96069818 50.29488588 20.81080242 45.28752097 9.50390625 37.21875 C0.7468009 30.50097056 -9.98797868 20.99218759 -12.5078125 9.73046875 C-12.6895838 6.46464432 -12.17764371 4.29607285 -10.5 1.5 C-7.01036409 -0.59378155 -3.90284814 -0.87598996 0 0 Z " fill="#ffffff" transform="translate(308,120)"/>
</svg>