<svg xmlns="http://www.w3.org/2000/svg" width="512" height="512" viewBox="0 0 512 512" version="1.1"><path d="M 189.203 8.586 C 183.112 11.621, 181.920 13.158, 175.114 26.750 L 169.982 37 109.139 37 L 48.296 37 44.922 39.274 C 43.066 40.524, 40.524 43.066, 39.274 44.922 C 37.095 48.155, 37 49.141, 37 68.500 C 37 87.859, 37.095 88.845, 39.274 92.078 C 40.524 93.934, 43.066 96.476, 44.922 97.726 L 48.296 100 256 100 L 463.704 100 467.078 97.726 C 468.934 96.476, 471.476 93.934, 472.726 92.078 C 474.905 88.845, 475 87.859, 475 68.500 C 475 49.141, 474.905 48.155, 472.726 44.922 C 471.476 43.066, 468.934 40.524, 467.078 39.274 L 463.704 37 403.004 37 L 342.305 37 336.669 26.153 C 330.461 14.205, 327.491 10.627, 321.500 7.879 C 317.759 6.163, 313.507 6.042, 255.946 6.022 L 194.393 6 189.203 8.586 M 68.481 137.750 C 68.812 141.463, 73.549 216.725, 79.007 305 C 86.307 423.063, 89.356 467.086, 90.539 471.500 C 92.911 480.347, 96.624 486.419, 103.729 493.066 C 110.686 499.573, 114.730 501.958, 122.932 504.390 C 127.801 505.833, 141.574 506, 256 506 C 370.426 506, 384.199 505.833, 389.068 504.390 C 397.295 501.951, 401.835 499.299, 408.236 493.194 C 415.059 486.686, 419.228 479.848, 421.463 471.500 C 422.643 467.092, 425.701 422.924, 432.993 305 C 438.451 216.725, 443.188 141.463, 443.519 137.750 L 444.121 131 256 131 L 67.879 131 68.481 137.750" stroke="none" fill="#fffcfc" fill-rule="evenodd"/><path d="" stroke="none" fill="#fcfcfc" fill-rule="evenodd"/></svg>