<svg xmlns="http://www.w3.org/2000/svg" width="512" height="512" viewBox="0 0 512 512" version="1.1"><path d="M 444 82.888 C 429.888 87.456, 435.055 82.642, 308 209.581 L 188.500 328.973 138 278.605 C 108.622 249.305, 85.200 226.751, 82 224.683 C 72.802 218.738, 65.116 216.594, 53 216.594 C 44.636 216.594, 41.178 217.058, 36 218.875 C 24.404 222.944, 15.331 230.015, 8.496 240.309 C 2.881 248.765, 0.804 255.264, 0.242 266.132 C -0.331 277.210, 0.829 283.454, 5.234 293 C 8.014 299.026, 13.636 304.912, 82.349 373.749 C 147.616 439.131, 157.255 448.412, 163.075 451.470 C 175.362 457.927, 187.752 459.561, 200.907 456.460 C 215.755 452.960, 207.409 460.728, 359.793 308.578 C 436.955 231.535, 501.624 166.201, 503.503 163.391 C 508.937 155.265, 512.002 144.766, 511.988 134.324 C 511.969 119.982, 507.813 108.678, 498.873 98.647 C 488.500 87.009, 474.735 80.962, 458.824 81.054 C 452.743 81.089, 447.587 81.727, 444 82.888" stroke="none" fill="#fffcfc" fill-rule="evenodd"/><path d="" stroke="none" fill="#fcfcfc" fill-rule="evenodd"/></svg>