<svg xmlns="http://www.w3.org/2000/svg" width="512" height="512" viewBox="0 0 512 512" version="1.1"><path d="M 241 93.084 C 216.440 94.780, 186.048 102.951, 160.012 114.858 C 108.355 138.481, 54.885 181.763, 10.972 235.500 C 1.807 246.715, -0 250.102, 0 256.067 C 0 261.756, 1.780 265.046, 11.086 276.551 C 40.755 313.234, 77.446 346.938, 114.500 371.548 C 196.435 425.966, 274.514 433.742, 355.500 395.550 C 397.511 375.738, 443.241 340.798, 480.464 300.071 C 495.384 283.746, 507.812 268.530, 510.805 262.924 C 512.896 259.005, 513.987 249.272, 512.212 250.369 C 511.779 250.637, 510.890 249.651, 510.237 248.178 C 506.981 240.836, 475.251 205.014, 457.139 188.234 C 433.960 166.759, 419.308 154.976, 398.500 141.075 C 354.803 111.882, 311.742 95.939, 268.645 92.996 C 260.865 92.464, 254.050 92.088, 253.500 92.160 C 252.950 92.231, 247.325 92.647, 241 93.084 M 241.500 127.586 C 239.850 127.821, 234.900 128.499, 230.500 129.093 C 206.891 132.281, 176.580 143.567, 149.523 159.246 C 115.935 178.710, 74.695 214.136, 44.140 249.774 L 38.779 256.027 44.619 262.763 C 53.192 272.653, 67.921 287.862, 81 300.330 C 128.027 345.161, 179.317 373.897, 228 382.689 C 241.378 385.105, 270.879 385.054, 284.460 382.591 C 345.054 371.603, 408.966 329.724, 467.372 262.735 L 473.244 256 467.378 249.250 C 409.540 182.704, 344.465 140.080, 284.500 129.468 C 275.840 127.935, 247.696 126.703, 241.500 127.586 M 243.500 155.142 C 208.881 159.540, 178.850 181.569, 163.856 213.567 C 140.253 263.935, 162.444 324.198, 213.381 348.055 C 263.929 371.730, 324.146 349.666, 348.004 298.727 C 360.778 271.455, 360.778 240.545, 348.004 213.273 C 332.871 180.962, 302.924 159.425, 267.026 155.036 C 257.418 153.861, 253.442 153.879, 243.500 155.142 M 241.168 190.533 C 237.686 191.289, 230.953 193.788, 226.206 196.085 C 219.194 199.479, 215.951 201.887, 208.919 208.919 C 201.899 215.939, 199.477 219.198, 196.105 226.166 C 186.593 245.818, 186.593 266.182, 196.105 285.834 C 199.477 292.802, 201.899 296.061, 208.919 303.081 C 215.939 310.101, 219.198 312.523, 226.166 315.895 C 245.818 325.407, 266.182 325.407, 285.834 315.895 C 292.802 312.523, 296.061 310.101, 303.081 303.081 C 310.101 296.061, 312.523 292.802, 315.895 285.834 C 320.754 275.795, 322.965 266.466, 322.965 256 C 322.965 245.534, 320.754 236.205, 315.895 226.166 C 312.523 219.198, 310.101 215.939, 303.081 208.919 C 296.061 201.899, 292.802 199.477, 285.834 196.105 C 271.702 189.264, 256.024 187.309, 241.168 190.533 M 0.300 256 C 0.300 259.025, 0.487 260.262, 0.716 258.750 C 0.945 257.238, 0.945 254.762, 0.716 253.250 C 0.487 251.738, 0.300 252.975, 0.300 256" stroke="none" fill="#fffcfc" fill-rule="evenodd"/><path d="" stroke="none" fill="#fcfcfc" fill-rule="evenodd"/></svg>